HIERARCHY
ROOT Hips
{
	OFFSET 49.817799 9.418861 54.572300
	CHANNELS 6 Xposition Yposition Zposition Xrotation Yrotation Zrotation
	JOINT spine
	{
		OFFSET 0.000000 -0.342408 5.954380
		CHANNELS 3 Xrotation Yrotation Zrotation
		JOINT spine1
		{
			OFFSET 0.000000 -0.000002 8.856018
			CHANNELS 3 Xrotation Yrotation Zrotation
			JOINT spine2
			{
				OFFSET 0.000000 -0.000001 8.485672
				CHANNELS 3 Xrotation Yrotation Zrotation
				JOINT Neck
				{
					OFFSET 0.000000 -1.038704 21.786301
					CHANNELS 3 Xrotation Yrotation Zrotation
					JOINT Head
					{
						OFFSET 0.000000 -0.000001 6.582199
						CHANNELS 3 Xrotation Yrotation Zrotation
						End Site
						{
							OFFSET 0.000000 5.254357 15.932602
						}
					}
				}
				JOINT RightShoulder
				{
					OFFSET -3.573071 0.497523 9.163857
					CHANNELS 3 Xrotation Yrotation Zrotation
					JOINT RightArm
					{
						OFFSET 0.000000 -0.000002 12.019203
						CHANNELS 3 Xrotation Yrotation Zrotation
						JOINT RightArmRoll
						{
							OFFSET 0.000000 -0.000001 6.067551
							CHANNELS 3 Xrotation Yrotation Zrotation
							JOINT RightForeArm
							{
								OFFSET 0.000000 -0.000003 17.672600
								CHANNELS 3 Xrotation Yrotation Zrotation
								JOINT RightForeArmRoll
								{
									OFFSET 0.000000 -0.000001 6.808731
									CHANNELS 3 Xrotation Yrotation Zrotation
									JOINT RightHand
									{
										OFFSET 0.000000 -0.000002 13.663605
										CHANNELS 3 Xrotation Yrotation Zrotation
										End Site
										{
											OFFSET 0.000000 0.000000 0.100006
										}
									}
								}
							}
						}
					}
				}
				JOINT LeftShoulder
				{
					OFFSET 3.573071 0.497523 9.163857
					CHANNELS 3 Xrotation Yrotation Zrotation
					JOINT LeftArm
					{
						OFFSET 0.000000 -0.000002 12.019203
						CHANNELS 3 Xrotation Yrotation Zrotation
						JOINT LeftArmRoll
						{
							OFFSET 0.000000 -0.000001 6.067551
							CHANNELS 3 Xrotation Yrotation Zrotation
							JOINT LeftForeArm
							{
								OFFSET 0.000000 -0.000003 17.672600
								CHANNELS 3 Xrotation Yrotation Zrotation
								JOINT LeftForeArmRoll
								{
									OFFSET 0.000000 -0.000001 6.808716
									CHANNELS 3 Xrotation Yrotation Zrotation
									JOINT LeftHand
									{
										OFFSET 0.000000 -0.000002 13.663605
										CHANNELS 3 Xrotation Yrotation Zrotation
										End Site
										{
											OFFSET 0.000000 0.000000 0.100006
										}
									}
								}
							}
						}
					}
				}
			}
		}
	}
	JOINT RightUpLeg
	{
		OFFSET -5.277740 0.811858 -0.967796
		CHANNELS 3 Xrotation Yrotation Zrotation
		JOINT RightUpLegRoll
		{
			OFFSET 0.000000 -0.000003 16.021397
			CHANNELS 3 Xrotation Yrotation Zrotation
			JOINT RightLeg
			{
				OFFSET 0.000000 0.000003 -19.840099
				CHANNELS 3 Xrotation Yrotation Zrotation
				JOINT RightLegRoll
				{
					OFFSET 0.000000 -0.000003 19.905003
					CHANNELS 3 Xrotation Yrotation Zrotation
					JOINT RightFoot
					{
						OFFSET 0.000000 -0.000003 16.567497
						CHANNELS 3 Xrotation Yrotation Zrotation
						JOINT RightToeBase
						{
							OFFSET 0.000000 -0.000002 13.849602
							CHANNELS 3 Xrotation Yrotation Zrotation
							End Site
							{
								OFFSET 0.005871 0.773116 6.707268
							}
						}
					}
				}
			}
		}
	}
	JOINT LeftUpLeg
	{
		OFFSET 5.277740 0.811858 -0.967796
		CHANNELS 3 Xrotation Yrotation Zrotation
		JOINT LeftUpLegRoll
		{
			OFFSET 0.000000 -0.000003 16.021503
			CHANNELS 3 Xrotation Yrotation Zrotation
			JOINT LeftLeg
			{
				OFFSET 0.000000 -0.000003 19.839996
				CHANNELS 3 Xrotation Yrotation Zrotation
				JOINT LeftLegRoll
				{
					OFFSET 0.000000 -0.000004 20.089005
					CHANNELS 3 Xrotation Yrotation Zrotation
					JOINT LeftFoot
					{
						OFFSET 0.000000 -0.000003 16.383499
						CHANNELS 3 Xrotation Yrotation Zrotation
						JOINT LeftToeBase
						{
							OFFSET 0.000000 -0.000002 13.849594
							CHANNELS 3 Xrotation Yrotation Zrotation
							End Site
							{
								OFFSET -0.026310 0.773115 6.707275
							}
						}
					}
				}
			}
		}
	}
}
MOTION
Frames: 9
Frame Time: 0.041667
52.117001 -27.486332 84.746567 -7.531058 -1.746692 0.301465 -0.954422 -0.045842 0.061848 2.094353 -0.092093 0.124664 3.739424 -0.090604 0.126361 44.249927 0.644241 12.592447 16.686434 17.971293 8.650625 2.748644 -75.695216 1.087908 -51.154446 -107.688806 -51.323578 0.000002 -0.000000 -0.000001 -0.027875 3.650470 -1.990845 -0.000001 0.000004 -3.011611 -5.000150 -7.999907 0.000020 -12.177410 73.000666 14.907463 -44.143335 114.883632 49.454668 -0.000000 0.000000 -0.000000 -0.026360 -3.639440 1.990787 0.000003 -0.000004 3.011609 -5.000172 7.999940 -0.000014 1.226657 -174.857173 5.287132 -179.999991 0.000006 -1.180004 170.791844 -2.383915 -0.517337 0.000001 0.000002 0.137306 69.677977 6.900081 2.065026 25.456962 -7.355616 0.000011 3.304665 179.553734 0.175970 -0.000005 -0.000004 -1.162120 -7.233810 1.873886 0.304008 0.000003 -0.000005 -0.077172 68.980369 -6.887381 -2.101909 25.456948 7.355612 0.000001 
52.117596 -27.491329 84.745071 -7.542715 -1.749936 0.301157 -0.952005 -0.044691 0.061848 2.099554 -0.089773 0.124666 3.744624 -0.088285 0.126364 44.319714 0.669571 12.539782 16.654195 17.905529 8.622627 2.796255 -75.690155 1.139720 -51.184485 -107.698115 -51.355485 0.000003 0.000000 -0.000001 -0.027872 3.650470 -1.990845 -0.000002 0.000004 -3.011610 -5.000152 -7.999907 0.000019 -12.206454 73.022755 14.940139 -44.195781 114.878864 49.495222 0.000002 -0.000000 0.000000 -0.026359 -3.639441 1.990787 0.000002 -0.000005 3.011610 -5.000173 7.999939 -0.000013 1.242004 -174.854209 5.291183 -179.999991 0.000006 -1.180004 170.801106 -2.384962 -0.517112 0.000001 0.000002 0.137306 69.673209 6.900081 2.065023 25.456960 -7.355617 0.000010 3.312213 179.557737 0.178673 -0.000004 -0.000004 -1.162120 -7.245308 1.871894 0.304940 0.000003 -0.000005 -0.077716 68.991973 -6.887366 -2.101885 25.456950 7.355613 -0.000001 
52.119698 -27.484028 84.754272 -7.554798 -1.753406 0.300365 -0.949577 -0.043440 0.061849 2.104803 -0.087245 0.124669 3.749875 -0.085760 0.126367 44.391308 0.693765 12.487664 16.619242 17.841719 8.595010 2.847611 -75.686146 1.195440 -51.218738 -107.705943 -51.390835 0.000003 0.000000 -0.000001 -0.027873 3.650470 -1.990845 -0.000002 0.000003 -3.011610 -5.000151 -7.999908 0.000019 -12.235778 73.044632 14.973105 -44.247871 114.873987 49.535220 0.000002 -0.000000 -0.000000 -0.026357 -3.639440 1.990786 0.000000 -0.000005 3.011609 -5.000172 7.999940 -0.000014 1.258032 -174.851231 5.295406 -179.999991 0.000006 -1.180005 170.810887 -2.385028 -0.515706 0.000000 0.000002 0.137305 69.668333 6.900076 2.065025 25.456965 -7.355616 0.000010 3.320551 179.562736 0.181543 -0.000005 -0.000004 -1.162120 -7.256466 1.869913 0.305896 0.000003 -0.000005 -0.078275 69.004001 -6.887373 -2.101837 25.456947 7.355612 0.000001 
52.122101 -27.481728 84.753174 -7.567169 -1.757024 0.299233 -0.947140 -0.042119 0.061850 2.110084 -0.084572 0.124671 3.755155 -0.083090 0.126369 44.464204 0.717118 12.435721 16.582251 17.779221 8.567724 2.901546 -75.682697 1.253855 -51.252565 -107.713613 -51.425058 0.000003 0.000000 -0.000001 -0.027874 3.650470 -1.990844 -0.000002 0.000004 -3.011609 -5.000151 -7.999908 0.000020 -12.265475 73.066591 15.006477 -44.299644 114.869001 49.574729 -0.000001 -0.000000 0.000000 -0.026360 -3.639441 1.990786 0.000001 -0.000005 3.011609 -5.000174 7.999940 -0.000014 1.274536 -174.848267 5.299743 -179.999991 0.000006 -1.180004 170.821091 -2.386081 -0.515442 0.000000 0.000002 0.137306 69.663265 6.900096 2.065042 25.456962 -7.355615 0.000009 3.329460 179.567722 0.184492 -0.000005 -0.000004 -1.162120 -7.267382 1.867924 0.306868 0.000003 -0.000005 -0.078844 69.016350 -6.887357 -2.101867 25.456945 7.355613 0.000000 
52.126305 -27.479626 84.754372 -7.579709 -1.760729 0.297908 -0.944692 -0.040757 0.061850 2.115374 -0.081816 0.124673 3.760453 -0.080336 0.126371 44.537792 0.739940 12.384060 16.544330 17.717559 8.540330 2.956981 -75.679719 1.313830 -51.285930 -107.721147 -51.458413 0.000003 -0.000000 -0.000001 -0.027872 3.650471 -1.990845 -0.000000 0.000004 -3.011610 -5.000151 -7.999907 0.000019 -12.295318 73.088434 15.040000 -44.351249 114.863961 49.614013 -0.000002 0.000000 -0.000000 -0.026358 -3.639441 1.990787 0.000002 -0.000005 3.011610 -5.000173 7.999938 -0.000013 1.291317 -174.844291 5.304180 -179.999991 0.000005 -1.180005 170.831501 -2.387149 -0.514173 0.000000 0.000002 0.137306 69.658176 6.900081 2.065057 25.456962 -7.355617 0.000010 3.338690 179.571725 0.187427 -0.000005 -0.000004 -1.162120 -7.278162 1.865934 0.307848 0.000003 -0.000005 -0.079419 69.028918 -6.887383 -2.101889 25.456947 7.355610 0.000001 
52.125202 -27.483833 84.753868 -7.592288 -1.764465 0.296531 -0.942248 -0.039386 0.061850 2.120682 -0.079039 0.124675 3.765752 -0.077562 0.126373 44.611596 0.762533 12.332298 16.506059 17.656085 8.513011 3.012770 -75.676816 1.374166 -51.321888 -107.728148 -51.494374 0.000002 0.000000 -0.000001 -0.027876 3.650470 -1.990845 -0.000002 0.000004 -3.011609 -5.000151 -7.999908 0.000020 -12.325235 73.110277 15.073608 -44.404207 114.858169 49.654785 0.000002 -0.000000 -0.000000 -0.026359 -3.639441 1.990787 0.000001 -0.000005 3.011611 -5.000174 7.999939 -0.000013 1.308160 -174.840344 5.308633 -179.999991 0.000006 -1.180004 170.841951 -2.387219 -0.513737 0.000001 0.000002 0.137306 69.653088 6.900066 2.065072 25.456965 -7.355615 0.000010 3.347998 179.576725 0.190433 -0.000004 -0.000004 -1.162120 -7.288909 1.863946 0.308831 0.000003 -0.000005 -0.079996 69.041574 -6.887340 -2.101893 25.456945 7.355613 0.000001 
52.121601 -27.482628 84.766273 -7.604785 -1.768150 0.295250 -0.939808 -0.038035 0.061851 2.125973 -0.076304 0.124676 3.771054 -0.074829 0.126374 44.685017 0.785192 12.280464 16.468325 17.594258 8.485539 3.067788 -75.673708 1.433713 -51.355414 -107.735757 -51.528002 0.000003 -0.000000 -0.000001 -0.027875 3.650470 -1.990845 -0.000002 0.000004 -3.011609 -5.000150 -7.999907 0.000019 -12.355195 73.132106 15.107255 -44.455847 114.853169 49.694114 -0.000002 -0.000000 0.000000 -0.026361 -3.639441 1.990786 0.000001 -0.000005 3.011610 -5.000174 7.999940 -0.000014 1.324862 -174.837379 5.313035 -179.999991 0.000005 -1.180004 170.852292 -2.388272 -0.512467 0.000000 0.000002 0.137306 69.648006 6.900087 2.064991 25.456969 -7.355617 0.000010 3.357143 179.581711 0.193418 -0.000005 -0.000004 -1.162120 -7.299715 1.861957 0.309808 0.000003 -0.000005 -0.080569 69.054025 -6.887355 -2.101923 25.456945 7.355613 -0.000000 
52.113899 -27.496727 84.769470 -7.617072 -1.771718 0.294209 -0.937371 -0.036734 0.061851 2.131242 -0.073672 0.124677 3.776323 -0.072200 0.126374 44.757652 0.808234 12.228252 16.432021 17.531513 8.457782 3.120894 -75.670115 1.491257 -51.389326 -107.743543 -51.562508 0.000001 0.000000 -0.000001 -0.027872 3.650470 -1.990845 -0.000001 0.000004 -3.011609 -5.000151 -7.999909 0.000020 -12.385131 73.154051 15.140858 -44.507869 114.848319 49.733947 -0.000003 0.000000 0.000000 -0.026360 -3.639441 1.990787 0.000001 -0.000004 3.011610 -5.000174 7.999940 -0.000014 1.341234 -174.834401 5.317349 -179.999991 0.000006 -1.180005 170.862373 -2.389324 -0.512205 0.000001 0.000002 0.137306 69.643027 6.900073 2.064997 25.456965 -7.355618 0.000010 3.365892 179.586710 0.196351 -0.000005 -0.000004 -1.162120 -7.310702 1.859967 0.310772 0.000003 -0.000005 -0.081135 69.066381 -6.887358 -2.101854 25.456947 7.355611 0.000001 
52.122601 -27.484932 84.762177 -7.629033 -1.775117 0.293552 -0.934946 -0.035513 0.061851 2.136483 -0.071207 0.124676 3.781553 -0.069737 0.126374 44.828796 0.831967 12.175674 16.398070 17.467384 8.429569 3.170938 -75.665655 1.545603 -51.420960 -107.752026 -51.595433 0.000004 0.000000 -0.000001 -0.027872 3.650470 -1.990845 -0.000001 0.000004 -3.011609 -5.000151 -7.999908 0.000019 -12.414884 73.176003 15.174264 -44.560069 114.843579 49.774140 -0.000002 -0.000000 0.000000 -0.026363 -3.639441 1.990787 0.000000 -0.000004 3.011609 -5.000174 7.999939 -0.000014 1.357058 -174.830440 5.321558 -179.999991 0.000006 -1.180004 170.872004 -2.389390 -0.510793 0.000000 0.000002 0.137306 69.638157 6.900063 2.065099 25.456962 -7.355617 0.000010 3.373999 179.590713 0.199140 -0.000004 -0.000004 -1.162120 -7.321960 1.857976 0.311715 0.000003 -0.000005 -0.081690 69.078204 -6.887363 -2.101918 25.456943 7.355610 0.000000 
